<svg xmlns="http://www.w3.org/2000/svg" viewBox="0 0 32 32" fill="none">
  <defs>
    <linearGradient id="f" x1="2" y1="30" x2="30" y2="2" gradientUnits="userSpaceOnUse">
      <stop stop-color="#6366f1"/>
      <stop offset="1" stop-color="#22d3ee"/>
    </linearGradient>
  </defs>
  <rect width="32" height="32" rx="8" fill="#0f1525"/>
  <path fill="url(#f)" d="M16 6c.42 0 .8.26.94.66l6.2 16.6c.09.26-.06.53-.34.61l-2 .62-.75 4.3a.45.45 0 01-.83.08l-1-3.06-1 3.06a.45.45 0 01-.83-.07l-.75-4.3-2-.63a.45.45 0 01-.33-.6L15.06 6.66c.13-.4.52-.66.94-.66Z"/>
  <circle cx="16" cy="13" r="1.65" fill="rgba(255,255,255,0.35)"/>
  <path fill="#22d3ee" opacity="0.85" d="M16 22c-.95 0-1.7.75-1.7 1.7 0 1.05 1.7 3.05 1.7 3.05s1.7-2 1.7-3.05c0-.95-.75-1.7-1.7-1.7Z"/>
</svg>
